<?xml version="1.0" encoding="UTF-8"?>
<!DOCTYPE svg PUBLIC "-//W3C//DTD SVG 1.1//EN" "http://www.w3.org/Graphics/SVG/1.1/DTD/svg11.dtd">
<!-- Creator: CorelDRAW -->
<svg xmlns="http://www.w3.org/2000/svg" xml:space="preserve" width="500px" height="500px" version="1.1" style="shape-rendering:geometricPrecision; text-rendering:geometricPrecision; image-rendering:optimizeQuality; fill-rule:evenodd; clip-rule:evenodd"
viewBox="0 0 126.99 126.99"
 xmlns:xlink="http://www.w3.org/1999/xlink"
 xmlns:xodm="http://www.corel.com/coreldraw/odm/2003">
 <defs>
  <style type="text/css">
   <![CDATA[
    .fil0 {fill:#16A249}
    .fil1 {fill:#FEFEFE}
   ]]>
  </style>
 </defs>
 <g id="Camada_x0020_1">
  <metadata id="CorelCorpID_0Corel-Layer"/>
  <g id="Logo-WhatsLink-sqr">
   <rect class="fil0" width="126.99" height="126.99" rx="25.4" ry="25.4"/>
   <g id="Logo-Padula">
    <path class="fil1" d="M67.25 54.12l6.26 -3.87 -6.33 -14.6c0.1,0.47 0.21,0.92 0.32,1.37l1.74 6.96c1.02,4.06 2.21,6.62 -1.99,10.14zm-1.04 -18.52c-3.71,19 -7.42,38.01 -11.13,57.01 -2.81,14.44 -33.92,10.21 -29.19,-3.71 1.88,-5.54 10.21,-6.74 17.04,-7.35 -6.28,2.38 -7.59,4.57 -8.17,7.8 -0.59,3.22 2.07,5.87 5.67,6.02 3.59,0.15 9.46,-1.93 12.29,-5.27 3.52,-4.16 3.78,-8.02 2.74,-11.65 -1.15,-3.51 -2.75,-6.06 -4.5,-9.26 11.45,-7.24 12.35,-24.6 15.25,-33.59zm8.44 17.27l4.58 10.55c-2.65,-4.44 -4.58,-6.96 -9.46,-7.54l4.88 -3.01z"/>
    <path class="fil1" d="M42.78 36.37c-13.94,4.5 -19.28,15.6 -14.04,25.96 -9.98,-14.19 5.24,-34.21 31.01,-36.6 14,-1.31 27.36,1.23 35.94,8.36 9.93,8.25 7.59,23.35 -8.98,33.9 -11.37,7.24 -26,10.35 -39.44,11.33 69.07,-17.99 47.82,-59.81 -4.49,-42.95z"/>
   </g>
  </g>
 </g>
</svg>
