<svg xmlns="http://www.w3.org/2000/svg" version="1.1" xmlns:xlink="http://www.w3.org/1999/xlink" width="1000" height="1000"><g clip-path="url(#SvgjsClipPath1184)"><rect width="1000" height="1000" fill="#14aa37"></rect><g transform="matrix(7,0,0,7,150,150)"><svg xmlns="http://www.w3.org/2000/svg" version="1.1" xmlns:xlink="http://www.w3.org/1999/xlink" width="100" height="100"><svg width="100" height="100" viewBox="0 0 100 100" fill="none" xmlns="http://www.w3.org/2000/svg">
<path fill-rule="evenodd" clip-rule="evenodd" d="M54.9238 37.6939L63.1471 32.6172L54.8338 13.4539C54.9704 14.0672 55.1071 14.6672 55.2504 15.2472L57.5405 24.3806C58.8771 29.7105 60.4438 33.0739 54.9238 37.6939ZM53.5571 13.3872C48.6904 38.3272 43.8271 63.2671 38.9604 88.2038C35.2604 107.16 -5.56306 101.607 0.640292 83.3371C3.1103 76.0638 14.0437 74.4971 23.007 73.6971C14.7637 76.8171 13.047 79.6905 12.2803 83.9238C11.5137 88.1604 15.0103 91.6371 19.727 91.8338C24.4437 92.0304 32.147 89.2938 35.8571 84.9104C40.4737 79.4538 40.8204 74.3938 39.4571 69.6271C37.9404 65.0238 35.8404 61.6672 33.5404 57.4738C48.5771 47.9672 49.7571 25.1906 53.5571 13.3872ZM64.5002 35.6665L71.1902 51.0865C67.7169 45.2565 64.4969 40.3765 58.0968 39.6232L64.5002 35.6665Z" fill="black"></path>
<path fill-rule="evenodd" clip-rule="evenodd" d="M54.9238 37.6939L63.1471 32.6172L54.8338 13.4539C54.9704 14.0672 55.1071 14.6672 55.2504 15.2472L57.5405 24.3806C58.8771 29.7105 60.4438 33.0739 54.9238 37.6939ZM53.5571 13.3872C48.6904 38.3272 43.8271 63.2671 38.9604 88.2038C35.2604 107.16 -5.56306 101.607 0.640292 83.3371C3.1103 76.0638 14.0437 74.4971 23.007 73.6971C14.7637 76.8171 13.047 79.6905 12.2803 83.9238C11.5137 88.1604 15.0103 91.6371 19.727 91.8338C24.4437 92.0304 32.147 89.2938 35.8571 84.9104C40.4737 79.4538 40.8204 74.3938 39.4571 69.6271C37.9404 65.0238 35.8404 61.6672 33.5404 57.4738C48.5771 47.9672 49.7571 25.1906 53.5571 13.3872ZM64.5002 35.6665L71.1902 51.0865C67.7169 45.2565 64.4969 40.3765 58.0968 39.6232L64.5002 35.6665Z" fill="black"></path>
<path fill-rule="evenodd" clip-rule="evenodd" d="M22.8169 14.404C4.51685 20.3073 -2.49651 34.8706 4.39018 48.4639C-8.71653 29.8406 11.2635 3.57733 45.087 0.430664C63.457 -1.27933 80.9904 2.04733 92.2504 11.4073C105.284 22.2406 102.217 42.0506 80.4637 55.9006C65.5504 65.4006 46.3436 69.4772 28.7069 70.7639C119.351 47.1539 91.4638 -7.73266 22.8169 14.404Z" fill="black"></path>
<path fill-rule="evenodd" clip-rule="evenodd" d="M22.8169 14.404C4.51684 20.3073 -2.49651 34.8706 4.39018 48.4639C-8.71653 29.8406 11.2635 3.57733 45.087 0.430664C63.457 -1.27933 80.9904 2.04733 92.2504 11.4073C105.284 22.2406 102.217 42.0506 80.4637 55.9006C65.5504 65.4005 46.3436 69.4772 28.7069 70.7639C119.351 47.1539 91.4638 -7.73266 22.8169 14.404Z" fill="black"></path>
</svg></svg></g></g><defs><clipPath id="SvgjsClipPath1184"><rect width="1000" height="1000" x="0" y="0" rx="250" ry="250"></rect></clipPath></defs></svg>